# xmcd
#
# Track frame offsets: 
#        150
#        29351
#        49159
#        67854
#        87935
#        105905
#        124954
#        150149
#        167991
#        187316
#        206776
#        222323
#        238623
#        251992
#        283483
#        299491
#        320337
#        337076
#
# Disc length: 4781 seconds
#
# Revision: 1
# Processed by: cddbd v1.5.2PL0 Copyright (c) Steve Scherf et al.
# Submitted via: ExactAudioCopy v1.3
#
DISCID=1c12ab12
DTITLE=Various Artist - Akella Presents - Vol.40 - Women's Blues  CD1
DYEAR=2014
DGENRE=Blues
TTITLE0=Lizzi Neal Band - Drownin
TTITLE1=Connie Hawkins - Don't Miss The Water
TTITLE2=Dana Gillespie - True Blue Love
TTITLE3=Kara Grainger - Little Pack Of Lies
TTITLE4=Bonnie Raitt - Time Of Our Lives
TTITLE5=Candye Kane - Invisible Woman
TTITLE6=Trudy Lynn - Street Walkin Daddy
TTITLE7=Danielle Schnebelen - I Didn't Try
TTITLE8=Cee Cee James - Wounds
TTITLE9=B. J. Allen and Blue Voodoo - Borderline
TTITLE10=Ana Popovic - Mo' Better Love
TTITLE11=Cassie Taylor - That's My Man
TTITLE12=Erin Jaimes - Ocean Of Tears
TTITLE13=Mojo Juju - Drive On
TTITLE14=Grana Louise - Bang Bang Bang
TTITLE15=Adele - He Won't Go
TTITLE16=Adrianna Marie - I Won't Sell My Love
TTITLE17=Mavis Staples - Jesus Wept
EXTD=
EXTT0=
EXTT1=
EXTT2=
EXTT3=
EXTT4=
EXTT5=
EXTT6=
EXTT7=
EXTT8=
EXTT9=
EXTT10=
EXTT11=
EXTT12=
EXTT13=
EXTT14=
EXTT15=
EXTT16=
EXTT17=
PLAYORDER=
